<svg xmlns="http://www.w3.org/2000/svg" width="24" height="24" viewBox="0 0 24 24" fill="#0077B5">
  <path d="M22.23 0H1.77C.79 0 0 .774 0 1.729v20.542C0 23.226.79 24 1.77 24h20.46c.98 0 1.77-.774 1.77-1.729V1.729C24 .774 23.21 0 22.23 0zm-14.7 20.452H3.54V8.994h4.01v11.458zm-2-13.066c-1.285 0-2.133-.877-2.133-1.975 0-1.12.868-1.976 2.173-1.976 1.305 0 2.132.856 2.152 1.976 0 1.098-.847 1.975-2.192 1.975zm14.7 13.066h-4.01v-6.167c0-1.547-.553-2.602-1.936-2.602-1.054 0-1.683.723-1.96 1.42-.1.243-.123.583-.123.926v6.423h-4.01s.053-10.42 0-11.458h4.01v1.623c.534-.823 1.486-1.996 3.613-1.996 2.637 0 4.607 1.72 4.607 5.419v6.412z"/>
</svg>
